<svg width="144" height="28" viewBox="0 0 144 28" fill="none" xmlns="http://www.w3.org/2000/svg">
<path d="M40.517 22.0001H44.2074V14.7899H51.6989V22.0001H55.3807V4.54558H51.6989V11.7473H44.2074V4.54558H40.517V22.0001ZM62.0881 22.2473C64.0227 22.2473 65.2756 21.4035 65.9148 20.1848H66.017V22.0001H69.4602V13.1706C69.4602 10.0513 66.8182 8.73876 63.9034 8.73876C60.767 8.73876 58.7045 10.2388 58.2017 12.6251L61.5597 12.8978C61.8068 12.0285 62.5824 11.3893 63.8864 11.3893C65.1222 11.3893 65.8295 12.0115 65.8295 13.0853V13.1365C65.8295 13.9802 64.9347 14.091 62.6591 14.3126C60.0682 14.5513 57.7415 15.4206 57.7415 18.3439C57.7415 20.9348 59.5909 22.2473 62.0881 22.2473ZM63.1278 19.7416C62.0114 19.7416 61.2102 19.2217 61.2102 18.2246C61.2102 17.2018 62.054 16.699 63.3324 16.52C64.125 16.4092 65.4205 16.2217 65.8551 15.9319V17.3211C65.8551 18.6933 64.7216 19.7416 63.1278 19.7416ZM72.277 22.0001H75.9077V8.90921H72.277V22.0001ZM74.1009 7.22171C75.1832 7.22171 76.0696 6.39501 76.0696 5.3808C76.0696 4.37512 75.1832 3.54842 74.1009 3.54842C73.027 3.54842 72.1406 4.37512 72.1406 5.3808C72.1406 6.39501 73.027 7.22171 74.1009 7.22171ZM83.6399 22.2132C85.7536 22.2132 86.853 20.9944 87.3558 19.9035H87.5092V22.0001H91.0888V4.54558H87.4666V11.1081H87.3558C86.87 10.0427 85.8217 8.73876 83.6314 8.73876C80.7592 8.73876 78.3303 10.9717 78.3303 15.4717C78.3303 19.8524 80.657 22.2132 83.6399 22.2132ZM84.7905 19.324C83.0092 19.324 82.0376 17.7388 82.0376 15.4547C82.0376 13.1876 82.9922 11.628 84.7905 11.628C86.5547 11.628 87.5433 13.1194 87.5433 15.4547C87.5433 17.7899 86.5376 19.324 84.7905 19.324ZM97.8068 22.2473C99.7415 22.2473 100.994 21.4035 101.634 20.1848H101.736V22.0001H105.179V13.1706C105.179 10.0513 102.537 8.73876 99.6222 8.73876C96.4858 8.73876 94.4233 10.2388 93.9205 12.6251L97.2784 12.8978C97.5256 12.0285 98.3011 11.3893 99.6051 11.3893C100.841 11.3893 101.548 12.0115 101.548 13.0853V13.1365C101.548 13.9802 100.653 14.091 98.3778 14.3126C95.7869 14.5513 93.4602 15.4206 93.4602 18.3439C93.4602 20.9348 95.3097 22.2473 97.8068 22.2473ZM98.8466 19.7416C97.7301 19.7416 96.929 19.2217 96.929 18.2246C96.929 17.2018 97.7727 16.699 99.0511 16.52C99.8438 16.4092 101.139 16.2217 101.574 15.9319V17.3211C101.574 18.6933 100.44 19.7416 98.8466 19.7416ZM111.626 14.4319C111.635 12.7444 112.641 11.7558 114.107 11.7558C115.564 11.7558 116.442 12.7103 116.433 14.3126V22.0001H120.064V13.6649C120.064 10.6138 118.274 8.73876 115.547 8.73876C113.604 8.73876 112.197 9.6933 111.609 11.2189H111.456V8.90921H107.996V22.0001H111.626V14.4319ZM128.823 27.1819C132.565 27.1819 135.224 25.4774 135.224 22.128V8.90921H131.619V11.1081H131.482C130.996 10.0427 129.931 8.73876 127.741 8.73876C124.869 8.73876 122.44 10.9717 122.44 15.4291C122.44 19.7842 124.8 21.8126 127.749 21.8126C129.837 21.8126 131.005 20.7643 131.482 19.6819H131.636V22.0768C131.636 23.8751 130.485 24.574 128.908 24.574C127.306 24.574 126.496 23.8751 126.198 23.0825L122.84 23.5342C123.275 25.5967 125.295 27.1819 128.823 27.1819ZM128.9 19.0853C127.119 19.0853 126.147 17.6706 126.147 15.4121C126.147 13.1876 127.102 11.628 128.9 11.628C130.664 11.628 131.653 13.1194 131.653 15.4121C131.653 17.7217 130.647 19.0853 128.9 19.0853ZM140.235 22.2217C141.326 22.2217 142.272 21.3098 142.281 20.1763C142.272 19.0598 141.326 18.1478 140.235 18.1478C139.11 18.1478 138.181 19.0598 138.19 20.1763C138.181 21.3098 139.11 22.2217 140.235 22.2217Z" fill="#3C50E0"/>
<path d="M9.59058 1.25C9.59058 0.559646 10.3003 0 11.1758 0L14.9804 0C15.8559 0 16.5656 0.559646 16.5656 1.25L16.5656 23.7501C16.5656 24.4404 15.8559 25.0001 14.9804 25.0001H11.1758C10.3003 25.0001 9.59058 24.4404 9.59058 23.7501L9.59058 1.25Z" fill="#3C50E0"/>
<path d="M0 1.24988C0 0.559524 0.709733 -0.00012207 1.58523 -0.00012207L5.38979 -0.00012207C6.26529 -0.00012207 6.97502 0.559524 6.97502 1.24988L6.97502 23.7499C6.97502 24.4403 6.26529 24.9999 5.38979 24.9999H1.58523C0.709733 24.9999 0 24.4403 0 23.7499L0 1.24988Z" fill="#3C50E0"/>
<path fill-rule="evenodd" clip-rule="evenodd" d="M20.4292 0.0624237C19.7423 -0.00647738 19.1813 0.559656 19.1813 1.25002L19.1813 4.37502C19.1813 5.06538 19.7455 5.61349 20.4245 5.73833C21.7857 5.98862 23.0503 6.64629 24.0426 7.63868C25.332 8.92799 26.0563 10.6767 26.0563 12.5C26.0563 14.3234 25.332 16.0721 24.0426 17.3614C23.0503 18.3538 21.7857 19.0115 20.4245 19.2618C19.7455 19.3866 19.1813 19.9347 19.1813 20.6251L19.1813 23.7501C19.1813 24.4404 19.7423 25.0066 20.4292 24.9377C23.2861 24.6511 25.9719 23.3871 28.0201 21.3389C30.3643 18.9947 31.6813 15.8153 31.6813 12.5C31.6813 9.18483 30.3643 6.0054 28.0201 3.66119C25.9719 1.61299 23.2861 0.348985 20.4292 0.0624237Z" fill="#3C50E0"/>
</svg>
