<svg width="80" height="80" viewBox="0 0 80 80" fill="none" xmlns="http://www.w3.org/2000/svg">
<circle cx="40" cy="40" r="40" fill="#E5F1FF"/>
<path opacity="0.3" fill-rule="evenodd" clip-rule="evenodd" d="M53.453 43.566L49.601 46.742C47.2333 43.8679 43.7062 42.2008 39.9824 42.196C36.2586 42.1911 32.7271 43.849 30.352 46.717L26.509 43.528C29.8346 39.5148 34.7779 37.1954 39.99 37.2027C45.202 37.2101 50.1387 39.5434 53.453 43.566ZM61.105 37.15L57.263 40.338C52.9974 35.1923 46.6623 32.2128 39.9784 32.2087C33.2946 32.2047 26.9559 35.1765 22.684 40.317L18.846 37.125C24.0671 30.8436 31.8134 27.2122 39.9814 27.217C48.1494 27.2219 55.8913 30.8624 61.105 37.15V37.15Z" fill="#377DFF"/>
<path fill-rule="evenodd" clip-rule="evenodd" d="M45.678 49.834L41.871 53.064L39.898 54.679L38.014 53.119L34.114 49.997C35.5123 48.2505 37.6182 47.2206 39.8553 47.1892C42.0924 47.1579 44.2263 48.1283 45.673 49.835L45.678 49.834Z" fill="#377DFF"/>
</svg>
