<svg width="80" height="80" viewBox="0 0 80 80" fill="none" xmlns="http://www.w3.org/2000/svg">
<circle cx="40" cy="40" r="40" fill="#FFE3DE"/>
<path fill-rule="evenodd" clip-rule="evenodd" d="M34.08 51.69C33.761 53.909 31.494 55.629 28.746 55.629C25.779 55.629 23.373 53.629 23.373 51.152C23.373 48.675 25.779 46.675 28.746 46.675C29.3521 46.6739 29.9553 46.7597 30.537 46.93L30.537 28.641C30.528 27.7392 31.0978 26.9332 31.951 26.641L42.251 23.491C42.8754 23.3029 43.5522 23.4261 44.0703 23.8222C44.5884 24.2183 44.8847 24.8391 44.867 25.491L44.867 28.641C44.7665 29.6092 44.0328 30.3916 43.073 30.554C41.9103 30.8313 38.9253 31.4283 34.118 32.345V51.245C34.1189 51.3942 34.1062 51.5431 34.08 51.69Z" fill="#FF715B"/>
<path opacity="0.3" fill-rule="evenodd" clip-rule="evenodd" d="M46.656 34.135H53.82C54.8089 34.1353 55.6104 34.937 55.6105 35.9259C55.6105 36.9148 54.809 37.7166 53.8201 37.717L46.656 37.717C45.6671 37.7167 44.8656 36.915 44.8655 35.9261C44.8655 34.9372 45.667 34.1354 46.6558 34.135H46.656ZM43.074 41.299H53.82C54.8089 41.2994 55.6103 42.1012 55.6102 43.0901C55.6102 44.079 54.8087 44.8807 53.8198 44.881H43.074C42.434 44.8813 41.8424 44.54 41.5223 43.9858C41.2022 43.4316 41.2022 42.7486 41.5223 42.1944C41.8423 41.6401 42.4338 41.2988 43.0738 41.299H43.074ZM43.074 48.463H53.82C54.8089 48.4634 55.6103 49.2652 55.6102 50.2541C55.6102 51.243 54.8087 52.0447 53.8198 52.045H43.074C42.434 52.0453 41.8424 51.704 41.5223 51.1498C41.2022 50.5956 41.2022 49.9126 41.5223 49.3584C41.8423 48.8041 42.4338 48.4628 43.0738 48.463H43.074Z" fill="#FF715B"/>
</svg>
