<svg width="80" height="80" viewBox="0 0 80 80" fill="none" xmlns="http://www.w3.org/2000/svg">
<circle cx="40" cy="40" r="40" fill="#EAFAF3"/>
<path fill-rule="evenodd" clip-rule="evenodd" d="M31.006 47.0749V28.9799C31.0051 28.1058 31.572 27.3322 32.406 27.0699L50.417 22.0699C51.0249 21.8787 51.6875 21.9887 52.2011 22.366C52.7147 22.7432 53.0177 23.3427 53.017 23.9799V46.9909C53.017 49.2009 50.777 50.9909 48.017 50.9909C45.257 50.9909 43.017 49.1989 43.017 46.9909C43.017 44.7829 45.257 42.9909 48.017 42.9909C48.352 42.9908 48.6864 43.0175 49.017 43.0709L49.017 28.9799L35.012 32.7319V50.9939C35.012 53.2039 32.772 54.9939 30.012 54.9939C27.252 54.9939 25.012 53.2019 25.012 50.9939C25.012 48.7859 27.252 46.9939 30.012 46.9939C30.345 46.9944 30.6774 47.0215 31.006 47.0749L31.006 47.0749Z" fill="#2DCA8C"/>
</svg>
